<?xml version="1.0" encoding="UTF-8"?>
<svg id="_Слой_2" data-name="Слой 2" xmlns="http://www.w3.org/2000/svg" xmlns:xlink="http://www.w3.org/1999/xlink" viewBox="0 0 1920 197.63">
  <defs>
    <style>
      .cls-1 {
        fill: #000;
      }

      .cls-1, .cls-2, .cls-3 {
        stroke-width: 0px;
      }

      .cls-2 {
        fill: url(#_Безымянный_градиент_225);
        opacity: .65;
      }

      .cls-3 {
        fill: url(#_Безымянный_градиент_237);
      }
    </style>
    <linearGradient id="_Безымянный_градиент_225" data-name="Безымянный градиент 225" x1="960" y1="197.63" x2="960" y2="0" gradientUnits="userSpaceOnUse">
      <stop offset="0" stop-color="#ffffff" stop-opacity="0"/>
      <stop offset="1" stop-color="#fff" stop-opacity=".8"/>
    </linearGradient>
    <linearGradient id="_Безымянный_градиент_237" data-name="Безымянный градиент 237" x1="71.95" y1="136.19" x2="1848.05" y2="136.19" gradientUnits="userSpaceOnUse">
      <stop offset="0" stop-color="#1a1a1a" stop-opacity="0"/>
      <stop offset=".49" stop-color="#1a1a1a"/>
      <stop offset="1" stop-color="#1a1a1a" stop-opacity="0"/>
    </linearGradient>
  </defs>
  <g id="_Слой_1-2" data-name="Слой 1">
    <g id="_меню_вверх" data-name="меню вверх">
      <g id="_меню---" data-name="меню---">
        <rect class="cls-2" y="0" width="1920" height="197.63"/>
        <g>
          <path class="cls-1" d="m1920,10.02V0H0v10.02h25.06l.07,6.74L0,52.92l.12,14.24,76.03-.04,26.37-40.44,150.29-.27,22.9,23.92,56.18.53,23.38-24.63,1174.42-.06,35,.06,23.39,24.63,56.18-.53,22.9-23.92,150.29.27,26.37,40.44,76.03.04.12-14.24-25.12-36.16.07-6.74h25.06ZM328.77,43.48l-49.87-.47-15.9-16.61,82.13-.15-16.35,17.22Zm1312.34-.47l-49.87.47-16.35-17.22,82.13.15-15.9,16.61Zm127.86-26.82l-249.65.08-1368.29-.08.07-6.18h1617.79l.07,6.18Z"/>
          <circle class="cls-1" cx="12.87" cy="80.38" r="5.14" transform="translate(-.36 .06) rotate(-.26)"/>
          <circle class="cls-1" cx="37.8" cy="80.38" r="5.14" transform="translate(-.35 .17) rotate(-.25)"/>
          <circle class="cls-1" cx="62.83" cy="80.38" r="5.14" transform="translate(-.35 .28) rotate(-.25)"/>
          <polygon class="cls-1" points="126.98 35.47 171.69 85.92 181.29 85.92 136.58 35.47 126.98 35.47"/>
          <polygon class="cls-1" points="108.39 35.47 153.11 85.92 162.71 85.92 117.99 35.47 108.39 35.47"/>
          <polygon class="cls-1" points="146.12 35.47 190.84 85.92 200.43 85.92 155.72 35.47 146.12 35.47"/>
          <polygon class="cls-1" points="165.26 35.47 209.98 85.92 219.58 85.92 174.86 35.47 165.26 35.47"/>
          <polygon class="cls-1" points="184.4 35.47 229.12 85.92 238.72 85.92 194 35.47 184.4 35.47"/>
          <polygon class="cls-1" points="203.55 35.47 248.27 85.92 257.87 85.92 213.15 35.47 203.55 35.47"/>
          <polygon class="cls-1" points="222.62 35.47 267.34 85.92 276.94 85.92 232.22 35.47 222.62 35.47"/>
          <polygon class="cls-1" points="242.67 35.47 287.39 85.92 296.99 85.92 252.27 35.47 242.67 35.47"/>
          <path class="cls-1" d="m1907.13,75.24c-2.84,0-5.14,2.3-5.14,5.14s2.3,5.14,5.14,5.14,5.14-2.3,5.14-5.14-2.3-5.14-5.14-5.14Z"/>
          <circle class="cls-1" cx="1882.2" cy="80.38" r="5.14"/>
          <circle class="cls-1" cx="1857.17" cy="80.38" r="5.14"/>
          <polygon class="cls-1" points="1783.42 35.47 1738.71 85.92 1748.31 85.92 1793.02 35.47 1783.42 35.47"/>
          <polygon class="cls-1" points="1757.29 85.92 1766.89 85.92 1811.61 35.47 1802.01 35.47 1757.29 85.92"/>
          <polygon class="cls-1" points="1764.28 35.47 1719.57 85.92 1729.16 85.92 1773.88 35.47 1764.28 35.47"/>
          <polygon class="cls-1" points="1745.14 35.47 1700.43 85.92 1710.02 85.92 1754.74 35.47 1745.14 35.47"/>
          <polygon class="cls-1" points="1726 35.47 1681.28 85.92 1690.88 85.92 1735.6 35.47 1726 35.47"/>
          <polygon class="cls-1" points="1706.85 35.47 1662.13 85.92 1671.73 85.92 1716.45 35.47 1706.85 35.47"/>
          <polygon class="cls-1" points="1687.78 35.47 1643.06 85.92 1652.66 85.92 1697.38 35.47 1687.78 35.47"/>
          <polygon class="cls-1" points="1667.73 35.47 1623.01 85.92 1632.61 85.92 1677.33 35.47 1667.73 35.47"/>
        </g>
      </g>
      <polygon class="cls-3" points="1848.05 136.05 1845.28 136.05 1845.28 142.31 1804.97 142.31 1804.97 136.05 1802.2 136.05 1802.2 142.31 1761.89 142.31 1761.89 136.05 1759.12 136.05 1759.12 142.31 1718.81 142.31 1718.81 136.05 1716.04 136.05 1716.04 142.31 1675.72 142.31 1675.72 136.05 1672.95 136.05 1672.95 142.31 1632.64 142.31 1632.64 136.05 1629.87 136.05 1629.87 142.31 1589.56 142.31 1589.56 136.05 1586.79 136.05 1586.79 142.31 1546.48 142.31 1546.48 136.05 1543.71 136.05 1543.71 142.31 1503.39 142.31 1503.39 136.05 1500.62 136.05 1500.62 142.31 1460.31 142.31 1460.31 136.05 1457.54 136.05 1457.54 142.31 1417.23 142.31 1417.23 136.05 1414.46 136.05 1414.46 142.31 1374.15 142.31 1374.15 136.05 1371.37 136.05 1371.37 142.31 1331.06 142.31 1331.06 136.05 1328.29 136.05 1328.29 142.31 1287.98 142.31 1287.98 136.05 1285.21 136.05 1285.21 142.31 1244.9 142.31 1244.9 136.05 1242.13 136.05 1242.13 142.31 1201.81 142.31 1201.81 136.05 1199.04 136.05 1199.04 142.31 1158.73 142.31 1158.73 136.05 1155.96 136.05 1155.96 142.31 1115.65 142.31 1115.65 136.05 1112.88 136.05 1112.88 142.31 1072.57 142.31 1072.57 136.05 1069.79 136.05 1069.79 142.31 1032.88 142.31 1017.8 127.23 903.43 127.23 888.35 142.31 850.2 142.31 850.2 136.05 847.43 136.05 847.43 142.31 807.12 142.31 807.12 136.05 804.35 136.05 804.35 142.31 764.04 142.31 764.04 136.05 761.27 136.05 761.27 142.31 720.96 142.31 720.96 136.05 718.19 136.05 718.19 142.31 677.87 142.31 677.87 136.05 675.1 136.05 675.1 142.31 634.79 142.31 634.79 136.05 632.02 136.05 632.02 142.31 591.71 142.31 591.71 136.05 588.94 136.05 588.94 142.31 548.63 142.31 548.63 136.05 545.85 136.05 545.85 142.31 505.54 142.31 505.54 136.05 502.77 136.05 502.77 142.31 462.46 142.31 462.46 136.05 459.69 136.05 459.69 142.31 419.38 142.31 419.38 136.05 416.61 136.05 416.61 142.31 376.29 142.31 376.29 136.05 373.52 136.05 373.52 142.31 333.21 142.31 333.21 136.05 330.44 136.05 330.44 142.31 290.13 142.31 290.13 136.05 287.36 136.05 287.36 142.31 247.05 142.31 247.05 136.05 244.28 136.05 244.28 142.31 203.96 142.31 203.96 136.05 201.19 136.05 201.19 142.31 160.88 142.31 160.88 136.05 158.11 136.05 158.11 142.31 117.8 142.31 117.8 136.05 115.03 136.05 115.03 142.31 74.72 142.31 74.72 136.05 71.95 136.05 71.95 145.14 73.39 145.14 73.39 145.14 889.52 145.14 904.61 130.06 1016.62 130.06 1031.71 145.14 1848.03 145.14 1848.03 145.14 1848.05 145.14 1848.05 136.05"/>
    </g>
  </g>
</svg>
