<?xml version="1.0" encoding="UTF-8"?>
<svg id="plashka-middle" data-name="Слой 2" xmlns="http://www.w3.org/2000/svg" xmlns:xlink="http://www.w3.org/1999/xlink" viewBox="0 0 1920 38.53">
  <defs>
    <style>
      .cls-1 {
        fill: #1a1a1a;
      }

      .cls-1, .cls-2, .cls-3 {
        stroke-width: 0px;
      }

      .cls-2 {
        fill: url(#_Безымянный_градиент_244);
      }

      .cls-3 {
        fill: url(#_Безымянный_градиент_244-2);
      }
    </style>
    <linearGradient id="_Безымянный_градиент_244" data-name="Безымянный градиент 244" x1="905.53" y1="19.26" x2="0" y2="19.26" gradientUnits="userSpaceOnUse">
      <stop offset="0" stop-color="#1a1a1a" stop-opacity="0"/>
      <stop offset=".25" stop-color="#1a1a1a" stop-opacity=".51"/>
      <stop offset=".58" stop-color="#1a1a1a" stop-opacity=".88"/>
      <stop offset="1" stop-color="#1a1a1a"/>
    </linearGradient>
    <linearGradient id="_Безымянный_градиент_244-2" data-name="Безымянный градиент 244" x1="1240.19" y1="-210.11" x2="1695.23" y2="244.94" xlink:href="#_Безымянный_градиент_244"/>
  </defs>
  <g id="_Слой_1-2" data-name="Слой 1">
    <g>
      <path class="cls-2" d="m202.54,26.66l-15.14-15.52-109.53-.09.02-11.02L249.69,0l15.69,15.84,640.15-.23v6.45l-585.21-.02-5.53,4.64-112.25-.02ZM263.81,0h-6.76l10.42,11.35h6.76L263.81,0ZM277.32,0h-6.76l10.41,11.35h6.76L277.32,0ZM290.87,0h-6.76l10.42,11.35h6.76L290.87,0ZM304.38,0h-6.76l10.41,11.35h6.76L304.38,0Zm7.26,33.95l-140.58-.07-14.57-18.34-156.49.05v4.58s154.28-.05,154.28-.05l14.57,18.34,142.79.07v-4.58ZM44.96,11.04V0h-11.05v11.04h11.05Zm-22.09,0V0h-11.05v11.04h11.05Zm43.96,0V0h-11.05v11.04h11.05Z"/>
      <path class="cls-3" d="m1605.21,26.68l-5.53-4.64-585.21.02v-6.45l640.15.23,15.69-15.84,171.8.03.02,11.02-109.53.09-15.14,15.52-112.25.02Zm40.57-15.33h6.76S1662.95,0,1662.95,0h-6.76s-10.41,11.35-10.41,11.35Zm-13.51,0h6.76S1649.44,0,1649.44,0h-6.76s-10.41,11.35-10.41,11.35Zm-13.55,0h6.76S1635.9,0,1635.9,0h-6.76s-10.41,11.35-10.41,11.35Zm-13.51,0h6.76S1622.38,0,1622.38,0h-6.76s-10.41,11.35-10.41,11.35Zm3.15,27.17l142.79-.07,14.57-18.34,154.28.05v-4.58s-156.49-.05-156.49-.05l-14.57,18.34-140.58.07v4.58Zm277.73-27.49V0s-11.05,0-11.05,0v11.04s11.05,0,11.05,0Zm22.09,0V0s-11.05,0-11.05,0v11.04s11.05,0,11.05,0Zm-43.96,0V0s-11.05,0-11.05,0v11.04s11.05,0,11.05,0Z"/>
      <polygon class="cls-1" points="947.07 22.84 943.94 22.85 943.96 33.89 954.98 33.89 954.98 30.76 947.09 30.76 947.07 22.84"/>
      <polygon class="cls-1" points="972.93 30.76 964.91 30.76 964.91 33.89 976.06 33.89 976.06 22.85 972.93 22.85 972.93 30.76"/>
      <polygon class="cls-1" points="964.98 1.76 964.98 4.89 972.93 4.89 972.93 12.88 976.06 12.88 976.06 1.76 964.98 1.76"/>
      <polygon class="cls-1" points="947.09 4.89 955.02 4.89 955.02 1.76 943.96 1.76 943.94 12.87 947.07 12.88 947.09 4.89"/>
      <path class="cls-1" d="m949.27,28.59h21.45V7.14h-21.45v21.45Zm11.94-10.69l7.95-7.94v15.89l-7.95-7.94Zm6.91,9.13h-16.04l8.02-8.02,8.02,8.02Zm-8.02-10.23l-8.08-8.08h16.17l-8.08,8.08Zm-1.11,1.11l-8.16,8.15V9.74l8.16,8.15Z"/>
    </g>
  </g>
</svg>
